# xmcd
#
# Track frame offsets:
#	150
#	14125
#	28762
#	46317
#	65043
#	83411
#	97033
#	116103
#	133744
#	151572
#	166584
#
# Disc length: 2764 seconds
#
# Revision: 1
# Processed by: cddbd v1.5.2PL0 Copyright (c) Steve Scherf et al.
# Submitted via: audiograbber 1.83.01
#
DISCID=880aca0b
DTITLE=Action Reaction - 3 Is The Magic Number
DYEAR=2006
DGENRE=Indie Rock
TTITLE0=Sinner's Algebra
TTITLE1=Can You Hear The Sun
TTITLE2=March On
TTITLE3=At The Moon
TTITLE4=Come See My Grave
TTITLE5=The Exit Poll Amen
TTITLE6=Contagious
TTITLE7=With My Voice
TTITLE8=The 21 Gun Salute
TTITLE9=Have A Cocktail
TTITLE10=Spark The Sun
EXTD=YEAR: 2006
EXTT0=
EXTT1=
EXTT2=
EXTT3=
EXTT4=
EXTT5=
EXTT6=
EXTT7=
EXTT8=
EXTT9=
EXTT10=
PLAYORDER=
